<?xml version="1.0" encoding="utf-8"?>
<!-- Generator: Adobe Illustrator 21.0.0, SVG Export Plug-In . SVG Version: 6.00 Build 0)  -->
<svg version="1.1" id="Layer_1" xmlns="http://www.w3.org/2000/svg" xmlns:xlink="http://www.w3.org/1999/xlink" x="0px" y="0px"
	 viewBox="0 0 256 256" style="enable-background:new 0 0 256 256;" xml:space="preserve">
<style type="text/css">
	.st0{fill:#B26E3B;}
	.st1{fill:#E9E9EA;}
	.st2{fill:#55ACD5;}
	.st3{fill:#6D6C6B;}
	.st4{fill:#898989;}
	.st5{fill:#FFCD29;}
	.st6{fill:#231F20;}
	.st7{fill:#EA4647;}
	.st8{fill:#6DCC6D;}
</style>
<g id="Layer_48">
	<path class="st0" d="M186.2,86.9V44.6c0-6.1-5-11.1-11.1-11.1h-31.6c2.8,3.2,2.6,8-0.6,10.9c-1.4,1.3-3.2,2-5.1,2H72.4
		c-4.2,0-7.7-3.4-7.7-7.7c0-1.9,0.7-3.7,2-5.1H34.5c-6.1,0-11.1,5-11.1,11.1v197.8c0,6.1,5,11.1,11.1,11.1h140.6
		c6.1,0,11.1-5,11.1-11.1V132.1l-23.6,40.8c-0.8,1.4-2.4,2.3-4.1,2.1h0l-6.9,12l-14.5,11.3c-0.9,0.7-2.2,0.5-2.9-0.4
		c-0.3-0.4-0.5-1-0.4-1.5l2.6-18.2l6.9-12l0,0c-1-1.3-1.1-3.1-0.3-4.6L186.2,86.9z"/>
	<path class="st1" d="M176,104.6V44.6c0-0.5-0.4-0.8-0.9-0.9h-31.6c-0.2,0.2-0.4,0.4-0.6,0.6l0,0c-0.2,0.2-0.4,0.3-0.6,0.5l0,0
		c-0.2,0.1-0.4,0.3-0.6,0.4l-0.1,0.1c-0.2,0.1-0.4,0.2-0.6,0.3c0,0-0.1,0-0.1,0.1c-0.2,0.1-0.4,0.2-0.6,0.2c-0.1,0-0.1,0-0.2,0.1
		c-0.2,0.1-0.4,0.1-0.6,0.2c-0.1,0-0.1,0-0.2,0.1c-0.2,0-0.4,0.1-0.6,0.1c-0.1,0-0.1,0-0.2,0c-0.3,0-0.5,0-0.8,0H72.4
		c-0.3,0-0.5,0-0.8,0c-0.1,0-0.1,0-0.2,0c-0.2,0-0.4-0.1-0.6-0.1c-0.1,0-0.1,0-0.2-0.1c-0.2,0-0.4-0.1-0.6-0.2c-0.1,0-0.1,0-0.2-0.1
		c-0.2-0.1-0.4-0.1-0.6-0.2c0,0-0.1,0-0.1-0.1c-0.2-0.1-0.4-0.2-0.6-0.3l-0.1-0.1c-0.2-0.1-0.4-0.3-0.6-0.4l0,0
		c-0.2-0.1-0.4-0.3-0.6-0.5l0,0c-0.2-0.2-0.4-0.4-0.5-0.6H34.5c-0.5,0-0.8,0.4-0.9,0.9v197.8c0,0.5,0.4,0.8,0.9,0.9h111.2L176,213
		v-63.1l-13.3,23.1c-0.8,1.4-2.4,2.3-4.1,2.1h0l-6.9,12l-14.5,11.3c-0.9,0.7-2.2,0.5-2.9-0.4c-0.3-0.4-0.5-1-0.4-1.5l2.6-18.2
		l6.9-12l0,0c-1-1.3-1.1-3.1-0.3-4.6L176,104.6z"/>
	<path class="st2" d="M104.5,104.8h39.1c2.6,0,4.7,2.1,4.7,4.7v10.1c0,2.6-2.1,4.7-4.7,4.7h-39.1c-2.6,0-4.7-2.1-4.7-4.7v-10.1
		C99.8,106.9,101.9,104.8,104.5,104.8z"/>
	<path class="st2" d="M143.5,141.8h-39.1c-2.6,0-4.7,2.1-4.7,4.7v10.1c0,2.6,2.1,4.7,4.7,4.7h38.8l4.9-8.5v-6.2
		C148.2,143.9,146.1,141.8,143.5,141.8z"/>
	<path class="st2" d="M133.8,196.4l2.5-17.7h-31.8c-2.6,0-4.7,2.1-4.7,4.7v10.1c0,2.6,2.1,4.7,4.7,4.7h29.9
		C134,197.7,133.7,197,133.8,196.4z"/>
	<path class="st3" d="M143.1,161.6l64.3-111.3c1.2-2,3.7-2.7,5.7-1.5l12.3,7.1c2,1.2,2.7,3.7,1.5,5.7l-64.3,111.3
		c-1.2,2-3.7,2.7-5.7,1.5l-12.3-7.1C142.6,166.2,141.9,163.6,143.1,161.6z"/>
	<path class="st4" d="M225.9,40.7c-4.2-2.4-9.6-1-12,3.2l0,0l-2.4,4.2c0.6,0.1,1.1,0.2,1.6,0.5l12.3,7.1c0.5,0.3,0.9,0.7,1.3,1.1
		l2.4-4.2C231.5,48.5,230.1,43.2,225.9,40.7C225.9,40.7,225.9,40.7,225.9,40.7z"/>
	<path class="st3" d="M228.9,58.2L219.7,74l7.9,4.6l3.3-5.8C233.8,68,232.9,62,228.9,58.2z"/>
	<path class="st1" d="M136.4,178.1l-2.6,18.2c-0.2,1.1,0.6,2.2,1.7,2.3c0.6,0.1,1.1-0.1,1.5-0.4l14.5-11.3L136.4,178.1z"/>
	<path class="st5" d="M156.9,174.4l-12.3-7.1c-0.5-0.3-0.9-0.7-1.3-1.1l-6.9,12l15.2,8.8l6.9-12C158,174.9,157.4,174.7,156.9,174.4z
		"/>
	<path class="st6" d="M188.4,88.1c0.2-0.4,0.3-0.8,0.3-1.2V44.6c0-7.5-6.1-13.6-13.6-13.6h-31.6c-1.4,0-2.5,1.1-2.5,2.5
		c0,0.6,0.2,1.2,0.6,1.7c1.9,2.1,1.7,5.4-0.4,7.3c-1,0.9-2.2,1.3-3.5,1.3H72.4c-2.9,0-5.2-2.3-5.2-5.2c0-1.3,0.5-2.5,1.3-3.5
		c0.9-1,0.8-2.6-0.2-3.5c-0.5-0.4-1.1-0.6-1.7-0.6H34.5c-7.5,0-13.6,6.1-13.6,13.6v197.8c0,7.5,6.1,13.6,13.6,13.6h140.6
		c7.5,0,13.6-6.1,13.6-13.6V132.1c0-1.4-1.1-2.5-2.5-2.5c-0.9,0-1.7,0.5-2.2,1.2l-23.6,40.8c-0.3,0.6-1,0.9-1.7,0.8h0
		c-1.1-0.1-2.1,0.5-2.6,1.5l-6.5,11.3l-13.2,10.3l2.3-16.6l6.5-11.3c0.6-0.8,0.6-1.9,0.1-2.8c0-0.1-0.1-0.1-0.1-0.2
		c-0.4-0.5-0.4-1.3-0.1-1.9L188.4,88.1z M140.9,160.3c-1,1.8-1.2,3.9-0.4,5.8l-6.2,10.8c-0.2,0.3-0.3,0.6-0.3,0.9l-2.6,18.2
		c-0.3,2.5,1.4,4.8,3.9,5.1c1.2,0.2,2.5-0.2,3.4-0.9l14.5-11.3c0.3-0.2,0.5-0.4,0.6-0.7l6.2-10.8c2-0.3,3.8-1.5,4.8-3.3l0,0
		l18.9-32.8v101c0,4.8-3.9,8.6-8.6,8.6H34.5c-4.8,0-8.6-3.9-8.6-8.6V44.6c0-4.8,3.9-8.6,8.6-8.6h28c-1.5,5.4,1.8,11,7.2,12.5
		c0.9,0.2,1.7,0.3,2.6,0.3h65.4c5.6,0,10.2-4.6,10.2-10.2c0-0.9-0.1-1.8-0.3-2.6h27.5c4.8,0,8.6,3.9,8.6,8.6v41.6L140.9,160.3z"/>
	<path class="st6" d="M178.1,105.9c0.2-0.4,0.3-0.8,0.3-1.2V44.6c0-1.9-1.5-3.4-3.4-3.4h-31.6c-0.7,0-1.4,0.3-1.9,0.8
		c-0.1,0.1-0.2,0.2-0.4,0.4l0,0c-0.1,0.1-0.3,0.2-0.4,0.3c-0.1,0.1-0.3,0.2-0.5,0.3c-0.1,0.1-0.3,0.1-0.4,0.2l-0.1,0
		c-0.1,0.1-0.3,0.1-0.4,0.1l-0.1,0c-0.1,0-0.2,0.1-0.4,0.1l-0.1,0c-0.1,0-0.3,0-0.4,0.1c0,0-0.1,0-0.2,0c-0.2,0-0.4,0-0.6,0H72.4
		c-0.2,0-0.4,0-0.5,0l0,0l-0.2,0c-0.1,0-0.3,0-0.4-0.1l-0.1,0c-0.1,0-0.3-0.1-0.4-0.1l-0.1,0c-0.1,0-0.3-0.1-0.4-0.1l-0.1-0.1
		c-0.1-0.1-0.3-0.1-0.4-0.2c-0.1-0.1-0.3-0.2-0.4-0.3c-0.1-0.1-0.3-0.2-0.4-0.3l0,0c-0.1-0.1-0.3-0.2-0.4-0.4
		c-0.5-0.5-1.2-0.8-1.9-0.8H34.5c-1.9,0-3.4,1.5-3.4,3.4v197.8c0,1.9,1.5,3.4,3.4,3.4h111.2c0.7,0,1.3-0.3,1.8-0.7l30.3-30.3
		c0.5-0.5,0.7-1.1,0.7-1.8v-63.1c0-1.4-1.1-2.5-2.5-2.5c-0.9,0-1.7,0.5-2.2,1.2l-13.3,23.1c-0.3,0.6-1,0.9-1.7,0.8h0
		c-1.1-0.1-2.1,0.5-2.6,1.5l-6.5,11.3l-13.2,10.3l2.3-16.6l6.5-11.3c0.6-0.8,0.6-1.9,0.1-2.8c0-0.1-0.1-0.1-0.1-0.2l0,0
		c-0.4-0.5-0.4-1.3-0.1-1.9L178.1,105.9z M140.9,160.3c-1,1.8-1.2,3.9-0.4,5.8l-6.2,10.8c-0.2,0.3-0.3,0.6-0.3,0.9l-2.6,18.2
		c-0.3,2.5,1.4,4.8,3.9,5.1c1.2,0.2,2.5-0.2,3.4-0.9l14.5-11.3c0.3-0.2,0.5-0.4,0.6-0.7l6.2-10.8c2-0.3,3.8-1.5,4.8-3.3l8.7-15v52.8
		l-28.8,28.8H36.2V46.2h29.5c0.2,0.2,0.5,0.4,0.7,0.6c0.2,0.2,0.5,0.4,0.8,0.5l0.1,0.1c0.2,0.1,0.5,0.3,0.8,0.4l0.2,0.1
		c0.2,0.1,0.5,0.2,0.8,0.3l0.2,0.1c0.2,0.1,0.5,0.1,0.8,0.2c0.1,0,0.2,0,0.3,0.1c0.3,0.1,0.5,0.1,0.8,0.1c0.1,0,0.2,0,0.3,0h0
		c0.4,0,0.7,0.1,1.1,0.1h65.4c0.4,0,0.7,0,1.1-0.1c0.1,0,0.2,0,0.3,0c0.3,0,0.5-0.1,0.8-0.1c0.1,0,0.2,0,0.3-0.1
		c0.3-0.1,0.5-0.1,0.7-0.2c0.1,0,0.1,0,0.2-0.1c0.3-0.1,0.5-0.2,0.7-0.3l0.2-0.1c0.3-0.1,0.5-0.3,0.8-0.4l0.1-0.1
		c0.3-0.2,0.5-0.3,0.8-0.6c0.2-0.2,0.5-0.4,0.7-0.6h29V104L140.9,160.3z"/>
	<path class="st5" d="M146.5,213c-0.5,0-0.8,0.4-0.9,0.9v29.4L176,213L146.5,213z"/>
	<path class="st1" d="M105.1,7.9c-10.2,0-18.4,8.3-18.4,18.4v4.6h10.3v-4.6c0-4.5,3.7-8.2,8.2-8.2s8.2,3.7,8.2,8.2v4.6h10.3v-4.6
		C123.5,16.1,115.2,7.9,105.1,7.9z"/>
	<path class="st4" d="M137.8,30.9H72.4c-4.2,0-7.7,3.4-7.7,7.7s3.4,7.7,7.7,7.7h65.4c4.2,0,7.7-3.4,7.7-7.7S142,30.9,137.8,30.9
		L137.8,30.9z"/>
	<path class="st2" d="M206,161.8c-1.4,0-2.5,1.1-2.5,2.5s1.1,2.5,2.5,2.5s2.5-1.1,2.5-2.5C208.5,163,207.4,161.8,206,161.8z"/>
	<path class="st7" d="M163.3,15.8c-1.4,0-2.5,1.1-2.5,2.5c0,1.4,1.1,2.5,2.5,2.5s2.5-1.1,2.5-2.5c0,0,0,0,0,0
		C165.8,16.9,164.7,15.8,163.3,15.8z"/>
	<path class="st8" d="M229.4,141.6c-3.8-0.7-6.8-3.7-7.5-7.5c0-0.1-0.1-0.2-0.2-0.1c-0.1,0-0.1,0.1-0.1,0.1
		c-0.7,3.8-3.7,6.8-7.5,7.5c-0.1,0-0.2,0.1-0.1,0.2c0,0.1,0.1,0.1,0.1,0.1c3.8,0.7,6.8,3.7,7.5,7.5c0,0.1,0.1,0.2,0.2,0.1
		c0.1,0,0.1-0.1,0.1-0.1c0.7-3.8,3.7-6.8,7.5-7.5c0.1,0,0.2-0.1,0.1-0.2C229.5,141.7,229.5,141.6,229.4,141.6z"/>
	<path class="st5" d="M147,4.3h-1.8V2.5c0-1.4-1.1-2.5-2.5-2.5s-2.5,1.1-2.5,2.5v1.8h-1.8c-1.4,0-2.5,1.1-2.5,2.5
		c0,1.4,1.1,2.5,2.5,2.5h1.8v1.8c0,1.4,1.1,2.5,2.5,2.5s2.5-1.1,2.5-2.5V9.3h1.8c1.4,0,2.5-1.1,2.5-2.5S148.4,4.3,147,4.3z"/>
	<path class="st6" d="M178.3,212c-0.4-0.9-1.3-1.5-2.3-1.5h-29.4c-1.9,0-3.4,1.5-3.4,3.4v29.4c0,1.4,1.1,2.5,2.5,2.5
		c0.7,0,1.3-0.3,1.8-0.7l30.3-30.3C178.4,214,178.7,212.9,178.3,212z M148.2,237.2v-21.7h21.7L148.2,237.2z"/>
	<path class="st6" d="M137.8,28.4H72.4c-5.6,0-10.2,4.6-10.2,10.2s4.6,10.2,10.2,10.2h65.4c5.6,0,10.2-4.6,10.2-10.2
		S143.4,28.4,137.8,28.4z M137.8,43.8H72.4c-2.9,0-5.2-2.3-5.2-5.2s2.3-5.2,5.2-5.2h65.4c2.9,0,5.2,2.3,5.2,5.2
		S140.6,43.8,137.8,43.8z"/>
	<path class="st6" d="M105.1,5.4c-11.6,0-20.9,9.4-20.9,20.9v4.6c0,1.4,1.1,2.5,2.5,2.5h10.3c1.4,0,2.5-1.1,2.5-2.5v-4.6
		c0-3.1,2.5-5.7,5.7-5.7s5.7,2.5,5.7,5.7v4.6c0,1.4,1.1,2.5,2.5,2.5h10.3c1.4,0,2.5-1.1,2.5-2.5v-4.6C126,14.7,116.6,5.4,105.1,5.4z
		 M121,28.4h-5.3v-2.1c0-5.9-4.8-10.7-10.7-10.7s-10.7,4.8-10.7,10.7v2.1h-5.3v-2.1c0-8.8,7.1-15.9,15.9-15.9S121,17.5,121,26.3
		L121,28.4z"/>
	<path class="st6" d="M134.3,43.8c-1.4,0-2.5,1.1-2.5,2.5v6.9c0,2.1-1.7,3.8-3.8,3.8H82.1c-2.1,0-3.8-1.7-3.8-3.8v-6.9
		c0-1.4-1.1-2.5-2.5-2.5s-2.5,1.1-2.5,2.5v6.9c0,4.8,3.9,8.8,8.8,8.8H128c4.8,0,8.8-3.9,8.8-8.8v-6.9
		C136.8,44.9,135.7,43.8,134.3,43.8z"/>
	<path class="st6" d="M120.5,72.8H89.4c-1.4,0-2.5,1.1-2.5,2.5s1.1,2.5,2.5,2.5h31.1c1.4,0,2.5-1.1,2.5-2.5S121.9,72.8,120.5,72.8z"
		/>
	<path class="st6" d="M142.2,86.1H67.9c-1.4,0-2.5,1.1-2.5,2.5s1.1,2.5,2.5,2.5h74.3c1.4,0,2.5-1.1,2.5-2.5S143.6,86.1,142.2,86.1z"
		/>
	<path class="st6" d="M86.6,105.4H64.4c-1.4,0-2.5,1.1-2.5,2.5s1.1,2.5,2.5,2.5h22.1c1.4,0,2.5-1.1,2.5-2.5S87.9,105.4,86.6,105.4z"
		/>
	<path class="st6" d="M86.6,118.6H64.4c-1.4,0-2.5,1.1-2.5,2.5s1.1,2.5,2.5,2.5h22.1c1.4,0,2.5-1.1,2.5-2.5S87.9,118.6,86.6,118.6z"
		/>
	<path class="st6" d="M86.6,142.4H64.4c-1.4,0-2.5,1.1-2.5,2.5s1.1,2.5,2.5,2.5h22.1c1.4,0,2.5-1.1,2.5-2.5S87.9,142.4,86.6,142.4z"
		/>
	<path class="st6" d="M86.6,155.6H64.4c-1.4,0-2.5,1.1-2.5,2.5s1.1,2.5,2.5,2.5h22.1c1.4,0,2.5-1.1,2.5-2.5S87.9,155.6,86.6,155.6z"
		/>
	<path class="st6" d="M86.6,179.3H64.4c-1.4,0-2.5,1.1-2.5,2.5s1.1,2.5,2.5,2.5h22.1c1.4,0,2.5-1.1,2.5-2.5S87.9,179.3,86.6,179.3z"
		/>
	<path class="st6" d="M86.6,192.5H64.4c-1.4,0-2.5,1.1-2.5,2.5s1.1,2.5,2.5,2.5h22.1c1.4,0,2.5-1.1,2.5-2.5S87.9,192.5,86.6,192.5z"
		/>
	<path class="st6" d="M143.5,102.3h-39.1c-4,0-7.2,3.2-7.2,7.2v10.1c0,4,3.2,7.2,7.2,7.2h39.1c4,0,7.2-3.2,7.2-7.2v-10.1
		C150.7,105.5,147.5,102.3,143.5,102.3z M145.7,119.5c0,1.2-1,2.2-2.2,2.2h-39.1c-1.2,0-2.2-1-2.2-2.2v-10.1c0-1.2,1-2.2,2.2-2.2
		h39.1c1.2,0,2.2,1,2.2,2.2L145.7,119.5z"/>
	<path class="st6" d="M152.9,184.8l-15.2-8.8c-1.2-0.7-2.7-0.3-3.4,0.9c-0.2,0.3-0.3,0.6-0.3,0.9l-2.6,18.2
		c-0.4,2.5,1.4,4.8,3.9,5.1c1.2,0.2,2.5-0.2,3.4-0.9l14.5-11.3c1.1-0.9,1.3-2.4,0.4-3.5C153.4,185.1,153.2,184.9,152.9,184.8
		L152.9,184.8z M136.5,195.6l1.9-13.4l8.8,5.1L136.5,195.6z"/>
	<path class="st6" d="M229.8,57.7c-0.5-1.7-1.6-3.2-3.1-4.1l-12.3-7.1c-3.2-1.8-7.3-0.7-9.1,2.5c0,0,0,0,0,0l-64.3,111.3
		c-1.8,3.2-0.7,7.3,2.4,9.1l12.3,7.1c3.2,1.8,7.3,0.7,9.1-2.4l64.3-111.3C230,61.3,230.2,59.4,229.8,57.7z M224.8,60.3l-64.3,111.3
		c-0.5,0.8-1.5,1.1-2.3,0.6c0,0,0,0,0,0l-12.3-7.1c-0.8-0.5-1.1-1.5-0.6-2.3l64.3-111.3c0.5-0.8,1.5-1.1,2.3-0.6c0,0,0,0,0,0
		l12.3,7.1C224.9,58.5,225.2,59.5,224.8,60.3C224.8,60.3,224.8,60.3,224.8,60.3L224.8,60.3z"/>
	<path class="st6" d="M227.1,38.6c-5.4-3.1-12.3-1.3-15.4,4.1l-2.4,4.2c-0.7,1.2-0.3,2.7,0.9,3.4c0.3,0.2,0.6,0.3,1,0.3
		c0.2,0,0.5,0.1,0.7,0.2l12.3,7.1c0.2,0.1,0.4,0.3,0.5,0.5c0.5,0.6,1.2,1,2,1c0,0,0.1,0,0.1,0c0.8,0,1.6-0.5,2-1.2l2.4-4.2
		C234.4,48.6,232.5,41.7,227.1,38.6z M226.9,51.5l-1,1.8L215,47l1-1.8c1.7-3,5.6-4,8.6-2.3C227.7,44.6,228.7,48.5,226.9,51.5
		L226.9,51.5z"/>
	<path class="st6" d="M234.6,63.1c-1-3.7-3.4-6.8-6.7-8.8l-15-8.7c-1.2-0.7-2.7-0.3-3.4,0.9c-0.7,1.2-0.3,2.7,0.9,3.4c0,0,0,0,0,0
		l15,8.7c4.5,2.6,6,8.4,3.4,12.9c0,0,0,0,0,0l-21.7,37.6c-1.2-0.6-2.7-0.1-3.3,1.2c-0.6,1.2-0.1,2.6,1,3.2l2,1.2
		c1.2,0.7,2.7,0.3,3.4-0.9l23-39.8C235.1,70.8,235.6,66.8,234.6,63.1z"/>
	<path class="st6" d="M230.6,56.4c-1-0.9-2.6-0.9-3.5,0.1c-0.1,0.1-0.2,0.3-0.3,0.5l-9.1,15.8c-0.7,1.2-0.3,2.7,0.9,3.4l7.9,4.6
		c1.2,0.7,2.7,0.3,3.4-0.9l3.3-5.8C236.5,68.3,235.5,60.9,230.6,56.4z M228.8,71.6l-2.1,3.6l-3.6-2.1l6-10.4
		C230.5,65.5,230.4,68.9,228.8,71.6L228.8,71.6z"/>
	<path class="st6" d="M160.8,173.8c-0.4-0.8-1.1-1.3-2-1.4c-0.2,0-0.5-0.1-0.7-0.2l-12.3-7.1c-0.2-0.1-0.4-0.3-0.5-0.5
		c-0.8-1.1-2.4-1.3-3.5-0.5c-0.3,0.2-0.5,0.5-0.7,0.8l-6.9,12c-0.7,1.2-0.3,2.7,0.9,3.4l15.2,8.8c1.2,0.7,2.7,0.3,3.4-0.9l6.9-12
		C161.1,175.5,161.2,174.6,160.8,173.8z M150.7,183.5l-10.9-6.3l4.2-7.3l10.9,6.3L150.7,183.5z"/>
	<path class="st6" d="M143.5,139.3h-39.1c-4,0-7.2,3.2-7.2,7.2v10.1c0,4,3.2,7.2,7.2,7.2h38.8c0.9,0,1.7-0.5,2.2-1.2l4.9-8.5
		c0.2-0.4,0.3-0.8,0.3-1.2v-6.2C150.7,142.5,147.5,139.3,143.5,139.3z M145.7,152l-3.9,6.7h-37.4c-1.2,0-2.2-1-2.2-2.2v-10.1
		c0-1.2,1-2.2,2.2-2.2h39.1c1.2,0,2.2,1,2.2,2.2L145.7,152z"/>
	<path class="st6" d="M138.2,177.1c-0.5-0.5-1.2-0.9-1.9-0.9h-31.8c-4,0-7.2,3.2-7.2,7.2v10.1c0,4,3.2,7.2,7.2,7.2h29.9
		c1.4,0,2.5-1.1,2.5-2.5c0-0.6-0.2-1.2-0.6-1.6l2.5-17.4C138.9,178.3,138.7,177.6,138.2,177.1z M131.4,195.6h-26.9
		c-1.2,0-2.2-1-2.2-2.2v-10.1c0-1.2,1-2.2,2.2-2.2h29L131.4,195.6z"/>
</g>
</svg>
